<svg xmlns="http://www.w3.org/2000/svg" viewBox="0 0 600 800" width="600" height="800">
  <defs>
    <linearGradient id="bg" x1="0" y1="0" x2="1" y2="1">
      <stop offset="0%" stop-color="#d6efff"/>
      <stop offset="100%" stop-color="#8ec5ff"/>
    </linearGradient>
  </defs>
  <rect width="600" height="800" fill="url(#bg)"/>
  <rect x="70" y="72" width="460" height="656" rx="34" fill="#ffffff" fill-opacity="0.24"/>
  <rect x="165" y="150" width="270" height="150" rx="18" fill="#f1f8ff" fill-opacity="0.95"/>
  <rect x="210" y="180" width="80" height="120" rx="8" fill="#1f2937"/>
  <rect x="300" y="180" width="90" height="80" rx="8" fill="#4a5568"/>
  <path d="M260 220h60" stroke="#6a7280" stroke-width="6"/>
  <text x="300" y="330" text-anchor="middle" font-family="Georgia" font-size="48" fill="#1f3d6b" font-weight="700">Skinner</text>
  <text x="300" y="368" text-anchor="middle" font-family="Georgia" font-size="24" fill="#34547e">Caixa de Skinner</text>
  <rect x="108" y="430" width="384" height="170" rx="14" fill="#0f172a" fill-opacity="0.1"/>
  <circle cx="220" cy="450" r="44" fill="#f59e0b"/>
  <rect x="274" y="438" width="140" height="20" rx="9" fill="#64748b"/>
  <rect x="274" y="470" width="190" height="12" rx="6" fill="#94a3b8"/>
  <rect x="274" y="490" width="120" height="12" rx="6" fill="#64748b"/>
  <text x="300" y="582" text-anchor="middle" font-family="Arial" font-size="22" fill="#1e3a5f">Reforco positivo</text>
</svg>
