<svg xmlns="http://www.w3.org/2000/svg" viewBox="0 0 600 800" width="600" height="800">
  <defs>
    <linearGradient id="bg" x1="0" y1="0" x2="1" y2="1">
      <stop offset="0%" stop-color="#e9f5ff"/>
      <stop offset="100%" stop-color="#a6d2ff"/>
    </linearGradient>
  </defs>
  <rect width="600" height="800" fill="url(#bg)"/>
  <rect x="64" y="72" width="472" height="656" rx="36" fill="#f8fcff" fill-opacity="0.8"/>
  <rect x="122" y="150" width="356" height="170" rx="20" fill="#d8edff"/>
  <rect x="166" y="178" width="120" height="80" rx="14" fill="#6d9ed4"/>
  <rect x="302" y="178" width="130" height="120" rx="14" fill="#95bde8"/>
  <path d="M186 236h40" stroke="#2d4f74" stroke-width="5"/>
  <path d="M186 258h100" stroke="#2d4f74" stroke-width="6"/>
  <circle cx="238" cy="256" r="10" fill="#10243d"/>
  <path d="M330 278c20 20 38 20 58 0" fill="none" stroke="#1f3f63" stroke-width="6"/>
  <rect x="160" y="365" width="280" height="210" rx="18" fill="#f6d58d"/>
  <rect x="187" y="397" width="220" height="18" rx="9" fill="#8c4a16"/>
  <rect x="187" y="430" width="220" height="18" rx="9" fill="#a86120"/>
  <rect x="187" y="463" width="220" height="18" rx="9" fill="#8c4a16"/>
  <text x="300" y="555" text-anchor="middle" font-family="Arial" font-size="24" fill="#2c4e72" font-weight="700">POMBOS</text>
  <text x="300" y="592" text-anchor="middle" font-family="Georgia" font-size="24" fill="#2c4e72">e consequencias</text>
  <text x="300" y="700" text-anchor="middle" font-family="Georgia" font-size="32" fill="#23415f" font-weight="700">Burrhus Skinner</text>
</svg>
