<svg width="1200" height="1600" viewBox="0 0 1200 1600" fill="none" xmlns="http://www.w3.org/2000/svg">
  <rect width="1200" height="1600" fill="#140F0A"/>
  <rect width="1200" height="1600" fill="url(#bg)"/>
  <circle cx="932" cy="298" r="256" fill="#E4A93B" fill-opacity="0.18"/>
  <circle cx="254" cy="1210" r="310" fill="#FFD27A" fill-opacity="0.12"/>
  <rect x="122" y="138" width="956" height="1324" rx="52" fill="#17110C" fill-opacity="0.68" stroke="#F4C86E" stroke-opacity="0.26" stroke-width="2"/>
  <rect x="182" y="214" width="292" height="42" rx="21" fill="#E8B14A" fill-opacity="0.16" stroke="#F0CA84" stroke-opacity="0.4"/>
  <text x="218" y="242" fill="#F7D79C" font-family="Georgia, serif" font-size="18" letter-spacing="5">CAPÍTULO 1</text>
  <text x="182" y="360" fill="#FFF6E5" font-family="Georgia, serif" font-size="96" font-weight="700">Estruturalismo</text>
  <text x="182" y="430" fill="#E9D4AF" font-family="Georgia, serif" font-size="28" letter-spacing="3">A PARTIR DE 1879</text>
  <text x="182" y="540" fill="#FFF0D4" font-family="Georgia, serif" font-size="48" font-weight="700">A mente entrou no laboratório</text>
  <text x="182" y="600" fill="#FFF0D4" font-family="Georgia, serif" font-size="48" font-weight="700">e saiu em partes.</text>
  <rect x="182" y="692" width="836" height="2" fill="#F0CA84" fill-opacity="0.26"/>
  <text x="182" y="798" fill="#F6E9D0" font-family="Georgia, serif" font-size="34">Sensações. Imagens. Sentimentos.</text>
  <text x="182" y="852" fill="#F6E9D0" font-family="Georgia, serif" font-size="34">Tudo observado com método, calma</text>
  <text x="182" y="906" fill="#F6E9D0" font-family="Georgia, serif" font-size="34">e um certo exagero analítico.</text>
  <g opacity="0.95">
    <circle cx="894" cy="1026" r="108" stroke="#F5D193" stroke-opacity="0.42" stroke-width="18"/>
    <circle cx="894" cy="1026" r="22" fill="#F5D193" fill-opacity="0.82"/>
    <path d="M894 918V1134" stroke="#F5D193" stroke-opacity="0.42" stroke-width="10"/>
    <path d="M786 1026H1002" stroke="#F5D193" stroke-opacity="0.42" stroke-width="10"/>
  </g>
  <g transform="translate(700 1140)">
    <path d="M108 0C74 38 54 76 48 112C40 154 54 196 88 232" stroke="#F5D193" stroke-width="14" stroke-linecap="round"/>
    <path d="M108 0C142 38 162 76 168 112C176 154 162 196 128 232" stroke="#F5D193" stroke-width="14" stroke-linecap="round"/>
    <path d="M88 232H128" stroke="#F5D193" stroke-width="14" stroke-linecap="round"/>
    <circle cx="76" cy="144" r="10" fill="#F5D193"/>
    <circle cx="140" cy="102" r="10" fill="#F5D193"/>
    <circle cx="118" cy="176" r="10" fill="#F5D193"/>
  </g>
  <g transform="translate(276 1088)">
    <ellipse cx="112" cy="50" rx="86" ry="30" fill="#F7DFB0" fill-opacity="0.24"/>
    <circle cx="112" cy="112" r="84" stroke="#F7DFB0" stroke-opacity="0.9" stroke-width="16"/>
    <circle cx="112" cy="112" r="18" fill="#F7DFB0" fill-opacity="0.92"/>
    <path d="M112 30V194" stroke="#F7DFB0" stroke-opacity="0.72" stroke-width="8"/>
    <path d="M30 112H194" stroke="#F7DFB0" stroke-opacity="0.72" stroke-width="8"/>
  </g>
  <text x="182" y="1286" fill="#E9D4AF" font-family="Georgia, serif" font-size="24" letter-spacing="4">LENTES, SENSAÇÕES E DISSECAÇÃO DA CONSCIÊNCIA</text>
  <defs>
    <linearGradient id="bg" x1="123" y1="102" x2="1085" y2="1506" gradientUnits="userSpaceOnUse">
      <stop stop-color="#4A2C10"/>
      <stop offset="0.46" stop-color="#23180F"/>
      <stop offset="1" stop-color="#120E0B"/>
    </linearGradient>
  </defs>
</svg>
