<svg width="1200" height="1600" viewBox="0 0 1200 1600" fill="none" xmlns="http://www.w3.org/2000/svg">
  <rect width="1200" height="1600" fill="#0F1317"/>
  <rect width="1200" height="1600" fill="url(#bg)"/>
  <circle cx="948" cy="286" r="250" fill="#6DE5C2" fill-opacity="0.14"/>
  <circle cx="252" cy="1248" r="304" fill="#B7FFCF" fill-opacity="0.1"/>
  <rect x="124" y="140" width="952" height="1320" rx="56" fill="#131A18" fill-opacity="0.58" stroke="#8EE7C8" stroke-opacity="0.18" stroke-width="2"/>
  <g opacity="0.94">
    <path d="M228 1016C332 930 426 888 520 884C624 880 716 920 808 1000" stroke="#A8F2D9" stroke-width="18" stroke-linecap="round"/>
    <path d="M250 1090C352 1006 442 968 532 966C628 964 716 998 796 1070" stroke="#6DE5C2" stroke-width="12" stroke-linecap="round"/>
    <circle cx="308" cy="1086" r="20" fill="#C5FBE7"/>
    <circle cx="536" cy="962" r="20" fill="#C5FBE7"/>
    <circle cx="764" cy="1072" r="20" fill="#C5FBE7"/>
  </g>
  <g transform="translate(734 382)">
    <circle cx="118" cy="118" r="106" stroke="#A8F2D9" stroke-width="18" stroke-opacity="0.82"/>
    <path d="M194 194L282 282" stroke="#A8F2D9" stroke-width="20" stroke-linecap="round"/>
    <circle cx="118" cy="118" r="18" fill="#A8F2D9"/>
  </g>
  <g opacity="0.5">
    <circle cx="336" cy="430" r="24" fill="#B7FFCF"/>
    <circle cx="394" cy="486" r="10" fill="#B7FFCF"/>
    <circle cx="890" cy="1246" r="18" fill="#B7FFCF"/>
    <circle cx="942" cy="1296" r="9" fill="#B7FFCF"/>
  </g>
  <defs>
    <linearGradient id="bg" x1="118" y1="118" x2="1078" y2="1498" gradientUnits="userSpaceOnUse">
      <stop stop-color="#204139"/>
      <stop offset="0.46" stop-color="#162723"/>
      <stop offset="1" stop-color="#0E1416"/>
    </linearGradient>
  </defs>
</svg>
