<svg width="256" height="256" viewBox="0 0 256 256" fill="none" xmlns="http://www.w3.org/2000/svg">
  <rect width="256" height="256" rx="64" fill="#09070D"/>
  <rect x="10" y="10" width="236" height="236" rx="54" fill="url(#bgGlow)" fill-opacity="0.18"/>
  <path d="M136.8 24.8C154.4 50 179.2 82.4 184.4 122.4C191.2 174.4 160.4 218.8 112.8 225.2C72.8 230.8 40.8 203.2 35.2 164C29.6 123.6 53.2 92.8 80.8 68C104.8 46.4 123.2 32.8 136.8 24.8Z" fill="url(#flameGradient)"/>
  <path d="M134 46.4C148.8 67.6 163.2 90.4 166.8 119.2C171.6 156.8 148.4 188 116 192.4C85.6 196.8 60.8 176 56.4 145.6C52.4 117.2 69.2 95.2 90.4 76.4C108.4 60.4 122.8 50 134 46.4Z" fill="white" fill-opacity="0.14"/>
  <path d="M133.2 77.2C143.6 90.8 153.2 106.8 155.6 126C158.8 148.4 145.2 167.6 125.2 170.4C106.4 172.8 91.2 160 88.8 141.2C86.4 124 96.8 110.4 110 98.8C120 89.6 128 83.2 133.2 77.2Z" fill="white" fill-opacity="0.9"/>
  <defs>
    <linearGradient id="flameGradient" x1="62" y1="32" x2="194" y2="216" gradientUnits="userSpaceOnUse">
      <stop stop-color="#F9A8D4"/>
      <stop offset="0.48" stop-color="#FB7185"/>
      <stop offset="1" stop-color="#38BDF8"/>
    </linearGradient>
    <radialGradient id="bgGlow" cx="0" cy="0" r="1" gradientUnits="userSpaceOnUse" gradientTransform="translate(136 76) rotate(90) scale(150)">
      <stop stop-color="#F472B6"/>
      <stop offset="0.5" stop-color="#38BDF8"/>
      <stop offset="1" stop-color="#09070D" stop-opacity="0"/>
    </radialGradient>
  </defs>
</svg>
