<svg xmlns="http://www.w3.org/2000/svg" viewBox="0 0 600 800" width="600" height="800">
  <defs>
    <linearGradient id="bg" x1="0" y1="0" x2="1" y2="1">
      <stop offset="0%" stop-color="#ffe3c4"/>
      <stop offset="100%" stop-color="#f6ab4b"/>
    </linearGradient>
    <linearGradient id="frame" x1="0" y1="0" x2="1" y2="1">
      <stop offset="0%" stop-color="#fff4e6"/>
      <stop offset="100%" stop-color="#ffd8a8"/>
    </linearGradient>
  </defs>
  <rect width="600" height="800" fill="url(#bg)"/>
  <rect x="52" y="52" width="496" height="696" rx="44" fill="url(#frame)"/>
  <rect x="92" y="130" width="416" height="280" rx="26" fill="#2f2a22" opacity="0.08"/>
  <circle cx="300" cy="270" r="84" fill="#fff1d9"/>
  <path d="M248 258h-36c-4 0-8 4-8 9v42l-32 17c-4 2-5 8-2 12l42 56 34-30v56c0 5 4 9 8 9h36c5 0 9-4 9-9v-56l34 30 42-56c3-4 2-10-2-12l-32-17v-42c0-5-4-9-8-9h-36" fill="#f6e5c4" stroke="#d99a3a" stroke-width="4"/>
  <circle cx="272" cy="264" r="7" fill="#3a332b"/>
  <circle cx="328" cy="264" r="7" fill="#3a332b"/>
  <path d="M282 314c10 12 27 12 36 0" stroke="#6d4d2f" stroke-width="6" stroke-linecap="round"/>
  <text x="300" y="540" text-anchor="middle" font-family="Georgia, 'Times New Roman', serif" font-size="58" fill="#6c3c13" font-weight="700">Watson</text>
  <text x="300" y="590" text-anchor="middle" font-family="Georgia, 'Times New Roman', serif" font-size="26" fill="#8a4a1a">Behaviorismo metodologico</text>
  <rect x="150" y="640" width="300" height="70" rx="16" fill="#ffdeaa" opacity="0.78"/>
  <text x="300" y="684" text-anchor="middle" font-family="Montserrat, Arial, sans-serif" font-size="20" fill="#7a3d12" letter-spacing="0.22em">S  R</text>
</svg>
